<svg xmlns="http://www.w3.org/2000/svg" width="14.9" height="16.982" viewBox="0 0 14.9 16.982">
  <g id="_3126675" data-name="3126675" transform="translate(-31.388)">
    <path id="Path_20" data-name="Path 20" d="M42.327,0a3.968,3.968,0,0,0-3.8,2.83h-6.4A.741.741,0,0,0,31.523,4l4.3,5.872a.779.779,0,0,1,.138.443V16.2a.778.778,0,0,0,1.243.622l1.91-1.443a1.138,1.138,0,0,0,.456-.909V10.311a.78.78,0,0,1,.138-.443l1.542-2.1A3.956,3.956,0,1,0,42.327,0ZM38.9,9.284a1.769,1.769,0,0,0-.326,1.026c0,4.527.024,4.215-.056,4.274l-1.564,1.181V10.311a1.77,1.77,0,0,0-.319-1.016L32.632,3.825h5.736A3.954,3.954,0,0,0,40.314,7.36Zm3.423-2.369a2.96,2.96,0,1,1,2.966-2.96A2.967,2.967,0,0,1,42.327,6.915Z" transform="translate(0)"/>
    <path id="Path_21" data-name="Path 21" d="M320.515,76.039a.5.5,0,0,0-.7,0l-.591.59-.591-.59a.5.5,0,0,0-.7.7l.589.588-.589.588a.5.5,0,0,0,.7.7l.591-.59.591.59a.5.5,0,0,0,.7-.7l-.589-.588.589-.588a.5.5,0,0,0,0-.7Z" transform="translate(-276.894 -73.376)"/>
  </g>
</svg>
